# xmcd CD database file
#
# Track frame offsets:
#	150
#	52544
#	88404
#	107145
#	137969
#	150898
#	174744
#	203964
#	251576
#	277510
#	306623
#
# Disc length: 4382 seconds
#
# Revision: 0
# Processed by: cddbd v1.5.2PL0 Copyright (c) Steve Scherf et al.
# Submitted via: CDex 1.51
#
DISCID=92111c0b
DTITLE=Lem Winchester - Lem's Beat and Another Opus
DYEAR=2015
DGENRE=Jazz
TTITLE0=Eddy's Dilemma
TTITLE1=Lem And Aid
TTITLE2=Friendly Persuasion
TTITLE3=Your Last Chance
TTITLE4=Lady Day
TTITLE5=Just Friends
TTITLE6=Another Opus
TTITLE7=Blues Prayer
TTITLE8=The Meetin'
TTITLE9=Like Someone In Love
TTITLE10=Both Barrels
EXTD=YEAR: 2015
EXTT0=
EXTT1=
EXTT2=
EXTT3=
EXTT4=
EXTT5=
EXTT6=
EXTT7=
EXTT8=
EXTT9=
EXTT10=
PLAYORDER=
